<?xml version="1.0" encoding="UTF-8" standalone="no"?>
<!-- Created with Inkscape (http://www.inkscape.org/) -->

<svg
   version="1.1"
   id="svg2"
   xml:space="preserve"
   width="486.42801"
   height="496.44"
   viewBox="0 0 486.42801 496.44"
   sodipodi:docname="google-2015-seeklogo.com.ai"
   xmlns:inkscape="http://www.inkscape.org/namespaces/inkscape"
   xmlns:sodipodi="http://sodipodi.sourceforge.net/DTD/sodipodi-0.dtd"
   xmlns="http://www.w3.org/2000/svg"
   xmlns:svg="http://www.w3.org/2000/svg"><defs
     id="defs6"><clipPath
       clipPathUnits="userSpaceOnUse"
       id="clipPath16"><path
         d="M 0,372.33 H 364.821 V 0 H 0 Z"
         id="path14" /></clipPath></defs><sodipodi:namedview
     id="namedview4"
     pagecolor="#ffffff"
     bordercolor="#666666"
     borderopacity="1.0"
     inkscape:pageshadow="2"
     inkscape:pageopacity="0.0"
     inkscape:pagecheckerboard="0" /><g
     id="g8"
     inkscape:groupmode="layer"
     inkscape:label="google-2015-seeklogo.com"
     transform="matrix(1.3333333,0,0,-1.3333333,0,496.44)"><g
       id="g10"><g
         id="g12"
         clip-path="url(#clipPath16)"><g
           id="g18"
           transform="translate(20.0645,269.6387)"><path
             d="m 0,0 c 7.594,16.704 18.325,31.278 30.908,44.466 28.474,29.846 62.95,48.958 103.76,55.477 57.121,9.125 108.243,-4.344 152.421,-42.384 2.791,-2.404 3.481,-3.809 0.446,-6.781 C 271.942,35.509 256.595,19.989 241.158,4.561 239.574,2.978 238.505,1.046 235.693,3.624 196.798,39.261 133.311,38.855 91.981,0.419 77.792,-12.777 67.702,-28.591 61.096,-46.719 c -0.964,0.631 -1.977,1.195 -2.886,1.894 C 38.8,-29.893 19.401,-14.944 0,0"
             style="fill:#d7282a;fill-opacity:1;fill-rule:evenodd;stroke:none"
             id="path20" /></g><g
           id="g22"
           transform="translate(80.7021,150.1357)"><path
             d="m 0,0 c 5.575,-14.16 12.504,-27.55 22.801,-38.921 26.183,-28.916 58.638,-41.39 97.524,-37.353 18.067,1.876 34.529,7.995 49.91,17.398 1.476,-1.319 2.881,-2.729 4.436,-3.945 18.001,-14.054 36.026,-28.079 54.043,-42.112 -19.868,-18.869 -43.327,-31.43 -69.715,-38.102 -62.219,-15.727 -119.572,-5.787 -170.5,34.403 -21.055,16.615 -37.616,37.14 -49.29,61.434 C -40.526,-31.465 -20.263,-15.732 0,0"
             style="fill:#45ac43;fill-opacity:1;fill-rule:evenodd;stroke:none"
             id="path24" /></g><g
           id="g26"
           transform="translate(309.4165,45.2031)"><path
             d="m 0,0 c -18.018,14.032 -36.042,28.058 -54.043,42.111 -1.556,1.216 -2.96,2.626 -4.436,3.946 12.199,9.31 22.378,20.321 29.064,34.312 2.665,5.577 4.539,11.416 6.311,17.319 1.22,4.07 0.842,5.654 -4.193,5.611 -29.987,-0.255 -59.977,-0.127 -89.967,-0.125 -6.352,0 -6.357,0.004 -6.357,6.572 -0.003,20.326 0.097,40.653 -0.086,60.979 -0.035,3.92 0.652,5.425 5.065,5.413 55.313,-0.161 110.627,-0.126 165.942,-0.051 2.985,0.004 4.863,-0.218 5.381,-3.85 C 59.563,123.86 54.047,77.636 28.726,34.941 20.974,21.87 11.659,9.934 0,0"
             style="fill:#5d7fbe;fill-opacity:1;fill-rule:evenodd;stroke:none"
             id="path28" /></g><g
           id="g30"
           transform="translate(80.7021,150.1357)"><path
             d="m 0,0 c -20.263,-15.732 -40.526,-31.465 -60.791,-47.198 -9.896,18.398 -15.604,38.163 -18.267,58.749 -4.614,35.668 0.456,69.985 15.587,102.712 0.831,1.798 1.884,3.493 2.833,5.238 19.401,-14.942 38.8,-29.891 58.21,-44.823 0.909,-0.699 1.923,-1.263 2.886,-1.894 C -7.67,48.571 -7.265,24.308 0,0"
             style="fill:#f4c300;fill-opacity:1;fill-rule:evenodd;stroke:none"
             id="path32" /></g></g></g></g></svg>
