<?xml version="1.0" encoding="UTF-8" standalone="no"?>
<!-- Created with Inkscape (http://www.inkscape.org/) -->

<svg
   version="1.1"
   id="svg2"
   xml:space="preserve"
   width="1192.5732"
   height="378.48001"
   viewBox="0 0 1192.5732 378.48001"
   sodipodi:docname="platzi-seeklogo.com.eps"
   xmlns:inkscape="http://www.inkscape.org/namespaces/inkscape"
   xmlns:sodipodi="http://sodipodi.sourceforge.net/DTD/sodipodi-0.dtd"
   xmlns="http://www.w3.org/2000/svg"
   xmlns:svg="http://www.w3.org/2000/svg"><defs
     id="defs6" /><sodipodi:namedview
     id="namedview4"
     pagecolor="#ffffff"
     bordercolor="#666666"
     borderopacity="1.0"
     inkscape:pageshadow="2"
     inkscape:pageopacity="0.0"
     inkscape:pagecheckerboard="0" /><g
     id="g8"
     inkscape:groupmode="layer"
     inkscape:label="ink_ext_XXXXXX"
     transform="matrix(1.3333333,0,0,-1.3333333,0,378.48)"><g
       id="g10"
       transform="scale(0.1)"><path
         d="m 2058.21,1738.01 c -2.37,11.71 -11.26,16.75 -17.79,23.32 -200.09,200.33 -400.52,400.37 -600.26,601.05 -15.07,15.12 -23.27,17.99 -40.08,1.09 -307.86,-309.05 -616.361,-617.45 -925.264,-925.37 -15.664,-15.61 -14.378,-23.23 0.493,-38.05 308.851,-308.01 617.311,-616.421 925.271,-925.312 15.07,-15.129 22.83,-15.726 38.1,-0.207 93.25,94.789 187.29,188.719 281.97,282.117 15.51,15.274 17.44,23.774 0.74,40.18 -94.23,92.512 -186.65,186.742 -280.88,279.202 -17.35,17.05 -19.27,25.54 -0.64,43.98 200.38,198.65 399.72,398.44 599.27,597.93 6.67,6.68 12.99,13.7 19.07,20.07 M 2057.77,448.98 C 1956.02,347.98 1853.87,247.27 1752.62,145.77 1704.04,96.9883 1650.33,55.8789 1585.3,32.8516 1407.4,-30.3516 1242.3,-4.35938 1107.19,128.168 778.875,450.371 454.406,776.512 130.633,1103.36 c -174.7385,176.37 -173.9963,456.55 1.137,633.11 322.585,325.26 646.66,649.08 971.87,971.78 174.78,173.4 455.17,173.84 631.14,0.84 219.56,-215.9 437.29,-433.73 653.38,-653.09 170.88,-173.5 174.94,-448.7 5.34,-624.57 -199.84,-207.1 -406,-408.18 -609.35,-611.918 -7.41,-7.41 -14.23,-15.371 -21.4,-23.071 -20.06,-11.671 -19.67,-22.05 -2.62,-38.75 94.63,-93.05 188.18,-187.191 281.72,-281.371 7.32,-7.32 20.76,-12.461 15.92,-27.34"
         style="fill:#82ce41;fill-opacity:1;fill-rule:nonzero;stroke:none"
         id="path12" /><path
         d="m 3389.21,1666.59 c 0,-106.1 0.55,-212.15 -0.44,-318.24 -0.2,-20.26 5.63,-25.5 25.54,-25.35 129.03,0.89 258.01,0.24 387.03,0.54 32.57,0.1 64.79,3.56 96.26,12.6 139.51,40.13 228.8,165.45 232.71,324.86 4.59,186.89 -118.85,354.81 -341.17,349.57 -124.19,-2.91 -248.47,-1.18 -372.7,0.11 -23.52,0.24 -27.92,-7.13 -27.72,-28.77 1.09,-105.11 0.49,-210.22 0.49,-315.32 m -275.19,-251.24 c 0,268.68 0.44,537.41 -0.7,806.08 -0.1,26 6.97,30.84 31.48,30.74 221.83,-1.04 443.71,-0.24 665.54,-0.74 139.6,-0.3 268.28,-36.12 378.18,-125.42 133.38,-108.27 198.26,-252.52 208.64,-420.88 11.66,-188.12 -44.23,-353.08 -186.8,-481.86 -105.8,-95.66 -233.59,-139.34 -374.52,-142.26 -135.75,-2.82 -271.6,-1.64 -407.34,-0.4 -26.49,0.25 -35.19,-4.4 -34.89,-33.35 1.78,-147.221 0.4,-294.53 1.28,-441.729 0.1,-21.461 -3.8,-29.5 -27.57,-28.922 -74.57,1.731 -149.19,1.582 -223.75,0.051 -23.53,-0.492 -30.2,5.731 -30.1,29.711 0.89,269.66 0.55,539.319 0.55,808.979"
         style="fill:#262628;fill-opacity:1;fill-rule:nonzero;stroke:none"
         id="path14" /><path
         d="m 6028.52,1300.53 c 0,60.83 -0.9,116.33 0.49,171.72 0.5,18.43 -5.54,26.93 -22.43,33.06 -94.24,34.25 -191.24,46.99 -290.27,33.25 -141.23,-19.61 -239.77,-95.02 -282.82,-233.38 -30.88,-99.23 -29.05,-199.65 2.68,-298.98 63,-197.509 240.8,-239.52 379.17,-200.481 112.12,31.633 166.63,117.461 195.63,223.561 24.76,90.97 16.07,184.13 17.55,271.25 m 40.67,-504.401 c -18.28,-22.77 -30.89,-48.117 -48.38,-70.258 -92.31,-116.621 -215.75,-168.473 -361.43,-164.16 -261.12,7.699 -440.64,168.898 -491.94,434.711 -26.19,135.988 -25.15,270.408 25.8,400.618 73.67,188.37 217.63,295.9 410.99,337.16 228.35,48.83 447.86,9.89 660.4,-80.25 16.5,-6.97 15.96,-18.04 15.91,-31.58 -0.09,-240.06 -0.09,-480.12 0,-720.241 0,-19.07 -0.4,-38.289 1.48,-57.32 5.79,-58.758 32.08,-85.039 91.28,-83.321 29,0.84 31.97,-9.679 31.03,-33.398 -1.63,-41.07 -0.45,-82.231 -0.4,-123.391 0,-10.527 1.63,-20.75 -14.08,-22.98 -62.76,-8.949 -125.57,-14.481 -188.08,0.5 -81.64,19.511 -128.34,78.32 -132.49,165.191 -0.74,16.211 -0.09,32.461 -0.09,48.719"
         style="fill:#262628;fill-opacity:1;fill-rule:nonzero;stroke:none"
         id="path16" /><path
         d="m 7885.92,802.988 h 163.07 c 132.93,0 265.86,-0.398 398.79,0.391 18.88,0.101 26.79,-2.91 26.24,-24.418 -1.58,-60.18 -1.03,-120.52 -0.24,-180.762 0.24,-15.711 -3.41,-21.34 -20.37,-21.34 -306.03,0.493 -612.07,0.34 -918.15,0.442 -20.16,0 -29.84,33.16 -17.34,59.59 2.81,5.98 7.12,11.269 10.72,16.91 180.52,283.488 360.15,567.539 555.34,841.309 4.2,5.88 8.01,12.06 14.53,21.89 h -32.18 c -163.51,0 -327.08,0.45 -490.59,-0.55 -21.5,-0.09 -27.29,5.04 -26.59,26.59 1.68,54.46 1.34,109.02 0.14,163.52 -0.39,18.33 4.11,23.87 23.24,23.82 292.68,-0.64 585.38,-0.84 878.02,0.2 24.31,0.09 26.19,-9.54 24.56,-28.12 -1.04,-11.42 -8.15,-19.17 -13.74,-27.82 -184.13,-285.68 -365.97,-572.83 -561.71,-850.902 -3.71,-5.289 -7.11,-10.769 -13.74,-20.75"
         style="fill:#262628;fill-opacity:1;fill-rule:nonzero;stroke:none"
         id="path18" /><path
         d="m 6694.48,1233.64 c 0,85.15 -0.65,170.29 0.5,255.38 0.24,21.11 -3.36,29.46 -27.18,28.67 -61.18,-1.98 -122.46,-0.1 -183.68,-0.99 -17.35,-0.25 -25.3,2.32 -24.76,22.78 1.57,55.44 1.48,110.99 0.05,166.43 -0.55,20.12 7.06,23.33 24.76,23.08 60.23,-0.99 120.62,1.39 180.76,-1.19 26.93,-1.13 30.58,8.16 30.15,31.73 -1.54,74.57 0.48,149.24 -1.25,223.81 -0.53,23.57 7.17,27.87 28.57,27.47 66.96,-1.33 133.96,-1.78 200.93,0.15 25.05,0.74 29.45,-7.46 28.95,-30.39 -1.53,-73.63 0.94,-147.36 -1.37,-220.94 -0.84,-27.77 8.74,-31.83 33.25,-31.58 112.87,1.24 225.78,-0.2 338.65,1.19 23.47,0.3 28.26,-7.12 27.68,-28.76 -1.49,-53.52 -1.44,-107.14 0,-160.7 0.53,-19.53 -6.04,-23.28 -24.08,-23.13 -116.67,0.74 -233.39,-0.15 -350.06,0.89 -19.92,0.15 -25.3,-4.55 -25.15,-24.91 0.94,-158.77 0.64,-317.59 0.44,-476.37 -0.05,-52.03 5.58,-103.139 25.7,-151.561 33.01,-79.41 103.38,-119.578 198.95,-114.539 59.6,3.11 117.31,15.762 173.15,36.27 17.99,6.621 24.07,2.66 26.19,-15.961 5.88,-52.239 13.1,-104.278 19.96,-156.36 1.34,-9.828 3.42,-17.738 -10.51,-21.64 -131.7,-37.27 -264.49,-63.199 -401.22,-31.028 -153.83,36.219 -237.24,140.028 -271.89,289.028 -19.27,82.769 -17.93,166.981 -17.54,251.131 0.24,44.03 0.05,88.01 0.05,132.04"
         style="fill:#262628;fill-opacity:1;fill-rule:nonzero;stroke:none"
         id="path20" /><path
         d="m 4570.21,1574.34 c 0,217.14 0.39,434.27 -0.55,651.41 -0.09,21.59 5.25,26.83 26.55,26.34 68.83,-1.48 137.71,-1.48 206.6,0.04 21.44,0.45 26.54,-4.99 26.49,-26.48 -0.69,-404.62 -0.54,-809.24 -0.59,-1213.86 0,-46.849 0.1,-93.688 11.32,-139.649 17.29,-70.973 58.6,-104.821 132.18,-107.379 28.67,-0.992 57.47,-1.492 85.69,4.886 14.82,3.313 19.96,-1.226 20.55,-16.75 2.04,-55.398 5.15,-110.789 8.35,-166.136 0.7,-11.274 -1.23,-16.563 -14.22,-18.532 -89.3,-13.539 -178.75,-21.941 -268.04,-2.621 -126.85,27.481 -190.2,114.743 -216.74,235.321 -15.07,68.59 -17.83,138.218 -17.69,208.14 0.35,188.42 0.1,376.85 0.1,565.27"
         style="fill:#262628;fill-opacity:1;fill-rule:nonzero;stroke:none"
         id="path22" /><path
         d="m 8917.87,1151.8 c 0,-181.761 -0.5,-363.46 0.59,-545.171 0.15,-23.82 -5.78,-30.539 -29.79,-29.988 -69.79,1.679 -139.61,1.23 -209.43,0.148 -17.74,-0.25 -22.34,4.602 -22.34,22.281 0.5,369.192 0.5,738.43 0.05,1107.62 -0.05,17.34 3.86,22.68 21.94,22.38 70.81,-1.18 141.58,-1.78 212.35,0.25 24.9,0.69 27.08,-9.14 26.98,-29.5 -0.6,-182.64 -0.35,-365.34 -0.35,-548.02"
         style="fill:#262628;fill-opacity:1;fill-rule:nonzero;stroke:none"
         id="path24" /><path
         d="m 8789.69,1946.12 c -93.59,0.45 -159.01,64.14 -159.06,154.82 -0.11,90.58 66.71,154.52 160.11,153.24 91.91,-1.29 154.37,-64.68 153.58,-156.11 -0.79,-89.59 -64.68,-152.39 -154.63,-151.95"
         style="fill:#262628;fill-opacity:1;fill-rule:nonzero;stroke:none"
         id="path26" /></g></g></svg>
